<svg width="27" height="27" viewBox="0 0 27 27" fill="none" xmlns="http://www.w3.org/2000/svg">
<path d="M26.8723 5.8319C26.7418 5.63389 26.5633 5.50994 26.3712 5.4837L5.98207 5.09201L5.41832 2.69832C5.02117 1.09817 3.94283 0.01791 2.72481 0H0.626395C0.280436 0 0 0.389687 0 0.870424C0 1.35116 0.280436 1.74085 0.626395 1.74085H2.72481C3.40587 1.76176 4.00559 2.36945 4.22818 3.26411L8.20577 19.9327L7.89261 20.9337C7.54329 22.1854 7.6482 23.5942 8.17448 24.72C8.69573 25.8257 9.57264 26.5082 10.5235 26.5479H22.7068C23.0528 26.5479 23.3332 26.1582 23.3332 25.6775C23.3332 25.1967 23.0528 24.807 22.7068 24.807H10.5234C9.98646 24.7884 9.49219 24.3959 9.20798 23.7625C8.92695 23.1369 8.86922 22.3662 9.0514 21.6735L9.30198 20.8901L22.4876 18.9751C23.9359 18.7535 25.1273 17.2897 25.4629 15.3193L26.9663 6.57162C27.0341 6.31972 26.9981 6.03641 26.8723 5.8319ZM24.2414 14.9277C24.0381 16.1961 23.2632 17.1317 22.331 17.2344L9.30198 19.1058L6.38924 6.83286L25.5882 7.22454L24.2414 14.9277Z" fill="white"/>
</svg>
