<svg width="25" height="26" viewBox="0 0 25 26" fill="none" xmlns="http://www.w3.org/2000/svg">
<path d="M21.3389 16.5488C19.9774 15.1548 18.3569 14.1227 16.5888 13.498C18.4825 12.1624 19.7266 9.9273 19.7266 7.39993C19.7266 3.31962 16.4847 0 12.5 0C8.51528 0 5.27344 3.31962 5.27344 7.39993C5.27344 9.9273 6.51753 12.1624 8.41123 13.498C6.64316 14.1227 5.02266 15.1548 3.66118 16.5488C1.30024 18.9665 0 22.1808 0 25.5997H1.95312C1.95312 19.6447 6.68442 14.7999 12.5 14.7999C18.3156 14.7999 23.0469 19.6447 23.0469 25.5997H25C25 22.1808 23.6998 18.9665 21.3389 16.5488ZM12.5 12.7999C9.59224 12.7999 7.22656 10.3775 7.22656 7.39993C7.22656 4.42236 9.59224 1.99998 12.5 1.99998C15.4078 1.99998 17.7734 4.42236 17.7734 7.39993C17.7734 10.3775 15.4078 12.7999 12.5 12.7999Z" fill="white"/>
</svg>
